PathFileType	4	(x/y/z)	S06_PSF_T05
DataRate	CameraRate	NumFrames	NumMarkers	Units	OrigDataRate	OrigDataStartFrame	OrigNumFrames
240	240	7	51	mm	240	50	397
Frame#	Time	Sternum			R.Acromium			L.Acromium			Top.Head			R.ASIS			L.ASIS			R.PSIS			L.PSIS			R.Great.Tro			L.Great.Tro			R.Iliac.Crest			L.Iliac.Crest			V.Sacral			R.Thigh.Upper.Post			R.Thigh.Lower.Ant			R.Thigh.Lower.Post			R.Thigh.Upper.Ant			R.Knee.Lat			R.Knee.Med			R.Shank.Upper.Post			R.Shank.Lower.Ant			R.Shank.Lower.Post			R.Shank.Upper.Ant			R.Ankle.Lat			R.Ankle.Med			R.Heel.Upper			R.Heel.Med			R.Heel.Lat			R.Toe.Lat			R.Toe.Med			R.Toe.Tip			L.Thigh.Upper.Post			L.Thigh.Lower.Ant			L.Thigh.Lower.Post			L.Thigh.Upper.Ant			L.Knee.Lat			L.Knee.Med			L.Shank.Upper.Post			L.Shank.Lower.Ant			L.Shank.Lower.Post			L.Shank.Upper.Ant			L.Ankle.Lat			L.Ankle.Med			L.Heel.Upper			L.Heel.Med			L.Heel.Lat			L.Toe.Lat			L.Toe.Med			L.Toe.Tip			Cervical.Spine			Back			
		X1	Y1	Z1	X2	Y2	Z2	X3	Y3	Z3	X4	Y4	Z4	X5	Y5	Z5	X6	Y6	Z6	X7	Y7	Z7	X8	Y8	Z8	X9	Y9	Z9	X10	Y10	Z10	X11	Y11	Z11	X12	Y12	Z12	X13	Y13	Z13	X14	Y14	Z14	X15	Y15	Z15	X16	Y16	Z16	X17	Y17	Z17	X18	Y18	Z18	X19	Y19	Z19	X20	Y20	Z20	X21	Y21	Z21	X22	Y22	Z22	X23	Y23	Z23	X24	Y24	Z24	X25	Y25	Z25	X26	Y26	Z26	X27	Y27	Z27	X28	Y28	Z28	X29	Y29	Z29	X30	Y30	Z30	X31	Y31	Z31	X32	Y32	Z32	X33	Y33	Z33	X34	Y34	Z34	X35	Y35	Z35	X36	Y36	Z36	X37	Y37	Z37	X38	Y38	Z38	X39	Y39	Z39	X40	Y40	Z40	X41	Y41	Z41	X42	Y42	Z42	X43	Y43	Z43	X44	Y44	Z44	X45	Y45	Z45	X46	Y46	Z46	X47	Y47	Z47	X48	Y48	Z48	X49	Y49	Z49	X50	Y50	Z50	X51	Y51	Z51	

50	0.20417	-1175	1289.6	352.73	-1302.1	1494	524.51	-1325.5	1495.1	174.14	-1285.8	1811	340.25	NaN	NaN	NaN	NaN	NaN	NaN	-1419.8	1068.9	381.3	-1422.3	1074.4	301.6	-1281	971.73	527.03	-1305.2	977.55	170.52	-1315.3	1125.4	510.73	-1287.8	1125.9	189.24	-1435.8	1038	344.35	-1246.9	726.73	530.66	-1174.6	651	502.2	-1246.3	637.95	517.13	-1175	741.98	512.87	-1224.7	531.16	508.76	-1202.1	527.66	377.36	-1416.9	416.53	505.91	NaN	NaN	NaN	-1476.3	371.72	488.78	-1365.2	372.66	494.99	-1564.5	275.01	463.49	-1543.7	269.7	377.53	-1624.9	310.91	418.51	-1642.8	291.12	385.33	-1649.9	286.99	449.27	-1577.6	119.23	475.44	-1552.2	113.05	358.59	NaN	NaN	NaN	-1199	724.48	195.62	-1142.1	655.87	260.98	-1205.9	636.38	218.46	-1141.6	747.58	234.05	-1206.1	543.53	236.2	-1185.8	555.25	355.76	-1245.7	315.81	248.86	-1180.3	255.29	257.38	-1251.1	244.58	267.12	-1178.8	325.36	244.12	-1202.5	108.17	274.33	-1199.9	128.37	363.5	-1286.1	74.912	315.18	-1282.9	44.695	346.08	-1276.8	48.065	284.15	-1095.1	45.41	259.09	-1083.9	44.914	379.62	-1008.5	58.137	331.23	-1370.4	1546.9	352.39	-1423.4	1274.6	352.87
51	0.20833	-1170	1289.9	352.96	-1297.3	1494.4	524.49	-1319.7	1495.4	174.04	-1280.5	1811.4	339.98	NaN	NaN	NaN	NaN	NaN	NaN	-1414.9	1069.2	380.85	-1417.3	1074.8	301.17	-1276	972.16	526.81	-1300	978.02	170.31	-1310.6	1125.7	510.5	-1282.6	1126.3	189.06	-1430.9	1038.4	343.85	-1238.3	727.82	530.81	-1165.4	652.85	501.81	-1236.4	638.97	517.35	-1166.7	743.89	512.55	-1213.8	532.55	508.91	-1192	529.29	377.43	-1405.7	417.77	506.61	NaN	NaN	NaN	-1465.2	372.87	489.65	-1354.1	373.96	495.33	-1553.5	276.41	464.36	-1532.9	270.86	378.44	-1614.7	311.71	419.13	-1632.4	291.29	386.2	-1639.1	287.73	450.15	-1565.2	121.02	477.5	-1540.2	113.96	360.72	NaN	NaN	NaN	-1195.5	724.6	195.36	-1138.9	655.65	260.64	-1202.9	636.54	218.2	-1137.9	747.37	233.66	-1203.6	543.6	236.07	-1183.1	555.26	355.59	-1244.5	316	248.86	-1179.3	255.18	257.3	-1250.1	244.84	267.17	-1177.5	325.21	243.98	-1202.1	108.26	274.39	-1199.5	128.44	363.55	-1286	75.093	315.24	-1282.9	44.796	346.09	-1276.7	48.228	284.17	-1095.1	45.412	259.1	-1083.9	44.53	379.86	-1008.4	57.64	331.28	-1364.9	1547.3	352.13	-1418.4	1275.1	352.46
52	0.2125	-1165	1290.1	353.18	-1292.4	1494.8	524.48	-1313.8	1495.7	173.95	-1275.1	1811.9	339.72	NaN	NaN	NaN	NaN	NaN	NaN	-1410	1069.6	380.41	-1412.4	1075.3	300.75	-1271	972.63	526.6	-1294.8	978.49	170.11	-1305.9	1126	510.26	-1277.5	1126.7	188.88	-1426	1038.8	343.37	-1229.8	728.98	530.94	-1156.3	654.76	501.4	-1226.6	640.06	517.53	-1158.4	745.86	512.24	-1202.9	534.02	509.01	-1182	531.01	377.45	-1394.5	418.9	507.23	NaN	NaN	NaN	-1454	373.86	490.44	-1343	375.22	495.66	-1542.3	277.53	465.21	-1521.9	271.76	379.32	-1604.5	312.12	419.71	-1621.8	291.05	387.04	-1628.2	288.07	451	-1552.4	122.56	479.56	-1527.8	114.63	362.85	NaN	NaN	NaN	-1192.1	724.74	195.13	-1135.8	655.43	260.33	-1199.9	636.72	217.95	-1134.2	747.17	233.31	-1201.1	543.67	235.94	-1180.5	555.27	355.43	-1243.2	316.2	248.87	-1178.3	255.08	257.22	-1249.2	245.09	267.22	-1176.2	325.06	243.84	-1201.7	108.36	274.45	-1199.1	128.51	363.6	-1286	75.264	315.3	-1282.8	44.901	346.1	-1276.6	48.39	284.19	-1095	45.416	259.11	-1084	44.177	380.09	-1008.2	57.174	331.33	-1359.4	1547.7	351.9	-1413.4	1275.6	352.04
53	0.21667	-1160	1290.4	353.38	-1287.6	1495.2	524.47	-1308	1496	173.87	-1269.7	1812.3	339.49	NaN	NaN	NaN	NaN	NaN	NaN	-1405.1	1069.9	379.99	-1407.5	1075.7	300.35	-1266	973.13	526.4	-1289.6	978.95	169.93	-1301.2	1126.3	510.03	-1272.4	1127.1	188.7	-1421	1039.2	342.91	-1221.5	730.22	531.05	-1147.3	656.74	500.98	-1216.8	641.22	517.69	-1150.2	747.88	511.92	-1192.1	535.58	509.06	-1172.1	532.8	377.43	-1383.3	419.94	507.78	NaN	NaN	NaN	-1442.8	374.68	491.16	-1331.8	376.43	495.96	-1530.9	278.37	466.03	-1510.8	272.38	380.17	-1594.1	312.15	420.26	-1611	290.41	387.85	-1617.1	288.02	451.82	-1539.3	123.84	481.61	-1515.1	115.06	364.95	NaN	NaN	NaN	-1188.6	724.88	194.91	-1132.7	655.22	260.04	-1197	636.9	217.71	-1130.5	746.97	233	-1198.7	543.75	235.82	-1178	555.29	355.28	-1242	316.39	248.86	-1177.4	254.99	257.14	-1248.3	245.35	267.26	-1175	324.92	243.7	-1201.4	108.46	274.51	-1198.8	128.59	363.65	-1285.9	75.427	315.35	-1282.8	45.01	346.11	-1276.5	48.549	284.21	-1094.9	45.422	259.11	-1084	43.853	380.32	-1008.1	56.737	331.37	-1353.9	1548.1	351.68	-1408.4	1276.2	351.63
54	0.22083	-1155	1290.7	353.58	-1282.7	1495.5	524.47	-1302.1	1496.3	173.79	-1264.4	1812.7	339.28	NaN	NaN	NaN	NaN	NaN	NaN	-1400.2	1070.3	379.58	-1402.6	1076.2	299.96	-1261.1	973.67	526.21	-1284.4	979.4	169.77	-1296.5	1126.7	509.81	-1267.2	1127.6	188.53	-1416.1	1039.6	342.47	-1213.3	731.52	531.13	-1138.4	658.78	500.56	-1207.1	642.43	517.81	-1142.2	749.93	511.59	-1181.5	537.2	509.08	-1162.1	534.66	377.36	-1372.1	420.86	508.27	NaN	NaN	NaN	-1431.6	375.31	491.81	-1320.6	377.57	496.25	-1519.4	278.92	466.82	-1499.5	272.73	381	-1583.5	311.79	420.78	-1600.1	289.39	388.64	-1605.9	287.59	452.62	-1525.9	124.87	483.65	-1502.2	115.25	367.03	NaN	NaN	NaN	-1185.2	725.04	194.73	-1129.6	655.02	259.79	-1194	637.09	217.48	-1126.9	746.78	232.74	-1196.3	543.83	235.69	-1175.5	555.31	355.13	-1240.9	316.59	248.85	-1176.5	254.91	257.06	-1247.5	245.6	267.3	-1173.7	324.79	243.56	-1201	108.56	274.57	-1198.4	128.66	363.68	-1285.9	75.583	315.39	-1282.8	45.125	346.12	-1276.5	48.706	284.23	-1094.8	45.428	259.12	-1084	43.557	380.54	-1008	56.328	331.41	-1348.5	1548.5	351.47	-1403.4	1276.7	351.23
55	0.225	-1150.1	1291	353.76	-1277.9	1495.9	524.48	-1296.3	1496.6	173.72	-1259	1813.2	339.09	NaN	NaN	NaN	NaN	NaN	NaN	-1395.3	1070.7	379.2	-1397.7	1076.6	299.6	-1256.1	974.23	526.02	-1279.2	979.86	169.62	-1291.7	1127	509.59	-1262.1	1128	188.35	-1411.2	1040	342.07	-1205.3	732.9	531.18	-1129.5	660.87	500.15	-1197.5	643.69	517.88	-1134.1	752.03	511.26	-1170.9	538.88	509.05	-1152.3	536.57	377.24	-1360.9	421.66	508.69	NaN	NaN	NaN	-1420.4	375.77	492.38	-1309.4	378.66	496.52	-1507.8	279.19	467.6	-1488.1	272.81	381.8	-1572.8	311.05	421.29	-1589.1	287.99	389.42	-1594.6	286.78	453.42	-1512.1	125.64	485.68	-1488.9	115.22	369.08	NaN	NaN	NaN	-1181.8	725.21	194.56	-1126.6	654.82	259.56	-1191.1	637.29	217.26	-1123.3	746.59	232.52	-1194	543.91	235.57	-1173.1	555.33	354.98	-1239.8	316.78	248.84	-1175.7	254.84	256.97	-1246.7	245.86	267.32	-1172.6	324.68	243.42	-1200.7	108.65	274.63	-1198.1	128.74	363.7	-1285.8	75.731	315.43	-1282.7	45.247	346.13	-1276.4	48.859	284.25	-1094.8	45.435	259.12	-1084	43.287	380.75	-1007.9	55.948	331.44	-1343.1	1548.9	351.29	-1398.4	1277.2	350.83
56	0.22917	-1145.2	1291.3	353.92	-1273	1496.3	524.48	-1290.4	1496.9	173.65	-1253.6	1813.6	338.92	NaN	NaN	NaN	NaN	NaN	NaN	-1390.4	1071.1	378.85	-1392.8	1077.1	299.26	-1251.2	974.83	525.85	-1274.1	980.33	169.49	-1287	1127.4	509.38	-1257	1128.4	188.18	-1406.3	1040.4	341.69	-1197.5	734.33	531.21	-1120.7	663	499.75	-1188.1	645.01	517.92	-1126.2	754.14	510.9	-1160.5	540.62	508.98	-1142.4	538.52	377.09	-1349.7	422.34	509.05	NaN	NaN	NaN	-1409.2	376.04	492.89	-1298.2	379.68	496.78	-1496	279.16	468.37	-1476.6	272.62	382.59	-1561.9	309.94	421.79	-1577.9	286.23	390.18	-1583.1	285.6	454.21	-1498.1	126.17	487.68	-1475.3	114.97	371.08	NaN	NaN	NaN	-1178.4	725.39	194.42	-1123.5	654.63	259.36	-1188.2	637.5	217.04	-1119.8	746.41	232.34	-1191.7	543.99	235.45	-1170.7	555.35	354.84	-1238.6	316.98	248.82	-1174.8	254.78	256.88	-1245.9	246.12	267.34	-1171.4	324.57	243.29	-1200.5	108.74	274.68	-1197.7	128.81	363.71	-1285.7	75.872	315.47	-1282.7	45.374	346.13	-1276.3	49.008	284.27	-1094.7	45.44	259.13	-1084.1	43.041	380.95	-1007.8	55.594	331.46	-1337.7	1549.3	351.12	-1393.5	1277.7	350.44
